# xmcd
#
# Track frame offsets: 
#        150
#        16187
#        31425
#        46504
#        64340
#        79535
#        96705
#        115738
#        133742
#        152264
#        171095
#        189317
#        210895
#
# Disc length: 3041 seconds
#
# Revision: 0
# Processed by: cddbd v1.5.2PL0 Copyright (c) Steve Scherf et al.
# Submitted via: ExactAudioCopyFreeDBPlugin 1.0
#
DISCID=9a0bdf0d
DTITLE=Dolly Parton - Blue Smoke
DYEAR=2014
DGENRE=Country
TTITLE0=Blue Smoke
TTITLE1=Unlikely Angel
TTITLE2=Don't Think Twice
TTITLE3=You Can't Make Old Friends (Duet With Kenny Rogers)
TTITLE4=Home
TTITLE5=Banks Of The Ohio
TTITLE6=Lay Your Hands on Me
TTITLE7=Miss You, Miss Me
TTITLE8=If I Had Wings
TTITLE9=Lover du Jour
TTITLE10=From Here To The Moon And Back (Duet With Willie Nelson)
TTITLE11=Try
TTITLE12=He's Everything (Ft- Queen Latifah)
EXTD=
EXTT0=
EXTT1=
EXTT2=
EXTT3=
EXTT4=
EXTT5=
EXTT6=
EXTT7=
EXTT8=
EXTT9=
EXTT10=
EXTT11=
EXTT12=
PLAYORDER=
